<svg xmlns="http://www.w3.org/2000/svg" width="708" height="773" version="1.2"><path d="M399.5 240.19c-2.2 2.81-7.52 9.43-11.81 14.71-4.3 5.28-9.31 11.4-11.14 13.6s-8.39 10.3-14.57 18c-6.19 7.7-12.43 15.52-13.87 17.37-1.43 1.85-4.07 5-5.86 7-1.78 2-3.24 3.97-3.25 4.38 0 .41-.79.74-1.75.72s-3.32-1.01-5.25-2.21-13.85-8.98-26.5-17.28-27.05-17.73-32-20.95-14.74-9.61-21.75-14.19c-7.01-4.59-13.2-8.12-13.75-7.84-.63.31-.28 3.02.92 7.25 1.06 3.71 2.37 7.88 2.91 9.25.54 1.38 1.89 5.43 2.99 9s3.6 11.68 5.55 18 5.25 16.78 7.34 23.24c2.08 6.46 3.56 12 3.29 12.32s-15.57-2.37-34-5.99c-18.43-3.61-53.97-10.61-79-15.55s-46.29-9.22-47.25-9.5c-.97-.29-1.64-.04-1.5.57.14.59 4.3 3.34 9.25 6.09 4.95 2.76 12.6 6.95 17 9.32s11.94 6.6 16.75 9.41c4.81 2.8 8.97 5.09 9.25 5.09s4.44 2.18 9.25 4.85 16.85 9.29 26.75 14.71c16.7 9.14 17.78 9.91 15 10.55-1.65.37-10.65.94-20 1.24-9.35.31-49.63 1.75-89.5 3.19-39.88 1.45-72.72 2.82-73 3.05-.27.22-.27.64 0 .93.27.28 4.55 1.15 9.5 1.93s19.35 3.06 32 5.07 28.4 4.48 35 5.49 22.35 3.47 35 5.48 28.85 4.54 36 5.62c7.15 1.09 13.9 2.34 15 2.79 1.57.64.61 1.14-4.5 2.32-3.57.83-41.82 10.63-85 21.76-43.17 11.13-78.72 20.42-79 20.63-.27.22-.27.56 0 .76.28.21 8.6-.21 18.5-.94 9.9-.72 18.9-1.29 20-1.27 1.1.03 18.42-1.13 38.5-2.57 20.08-1.43 52.93-3.74 73-5.11 20.07-1.38 36.62-2.39 36.77-2.24.14.14-3.23 2.55-7.5 5.35s-10.7 6.81-14.27 8.92-8.75 5.27-11.5 7.02c-2.75 1.76-18.05 11.2-34 20.99-15.95 9.78-33.05 20.28-38 23.32-4.95 3.05-8.55 5.69-8 5.88s16.53-4.2 35.5-9.76 39-11.45 44.5-13.09c5.5-1.65 13.15-3.89 17-5 3.85-1.1 14.43-4.24 23.5-6.97 9.07-2.72 18.53-5.58 21-6.33 2.47-.76 8.88-2.66 14.23-4.22 5.35-1.57 9.94-2.62 10.2-2.35s-1.99 6.57-5 14c-3.02 7.43-6.11 14.85-6.88 16.5s-5.71 13.46-10.97 26.25c-5.27 12.79-9.69 23.59-9.83 24s.07.98.47 1.25c.4.28 6.24-3.33 12.98-8s19.55-13.67 28.48-20c8.92-6.32 22.34-15.77 29.8-21 7.47-5.23 18.4-12.98 24.3-17.22 5.9-4.25 11.17-7.72 11.72-7.7.55.01 2.86 2.59 5.14 5.72 2.28 3.14 8.04 10.88 12.8 17.2s10.31 13.75 12.34 16.5 3.94 5.23 4.24 5.5c.31.27 5.09 6.58 10.64 14s10.82 14.06 11.71 14.75c1.3 1 1.72 1 2.1 0 .26-.69 1.82-6.42 3.47-12.75s4.63-18.25 6.62-26.5c2-8.25 5.16-20.51 7.04-27.25 1.87-6.74 3.39-13.04 3.38-14-.02-1.41.52-1.62 2.75-1.09 1.52.36 7.27 2.31 12.77 4.34 5.5 2.02 17.65 6.52 27 9.99s21.95 8.14 28 10.36c6.05 2.23 22.7 8.4 37 13.71 14.3 5.32 26.34 9.84 26.75 10.05.41.22.94.05 1.18-.36.23-.41-.94-2.32-2.6-4.25s-6.88-7.55-11.61-12.5c-4.72-4.95-18.29-19.05-30.15-31.34s-21.68-22.75-21.82-23.25.09-.91.5-.91 38.77 2.69 85.25 5.99c46.48 3.29 86.64 6.21 89.25 6.49 2.84.31 4.75.12 4.75-.48 0-.55-3.94-2.16-8.75-3.57-4.81-1.42-14.6-4.39-21.75-6.61-7.15-2.21-19.98-6.2-28.5-8.85s-21.58-6.69-29-8.98c-7.42-2.28-16.65-5.18-20.5-6.43s-12.79-4.03-19.87-6.17c-11.06-3.35-12.46-3.99-10-4.63 1.58-.4 9.39-1.63 17.37-2.72 7.98-1.1 20.58-2.88 28-3.97 7.42-1.08 40.73-5.85 74-10.59s60.73-8.81 61-9.05.27-.61 0-.83-13.77-.91-30-1.52-46.83-1.77-68-2.57-46.83-1.74-57-2.1c-10.17-.35-20-.93-21.83-1.28-2.93-.55 1.88-2.72 40-18.01 23.83-9.56 56.73-22.83 73.12-29.5 16.38-6.67 29.76-12.46 29.75-12.87-.02-.41-.6-.53-1.29-.27s-2.83.67-4.75.9c-1.92.24-5.98.93-9 1.55-3.02.61-14.73 2.72-26 4.69-11.27 1.96-27.92 4.85-37 6.41s-28.2 4.88-42.5 7.39c-14.3 2.5-33.88 5.93-43.5 7.62-9.63 1.69-17.73 2.81-18 2.49s7.86-9.01 18.08-19.3c10.22-10.3 27.41-27.73 38.2-38.73 10.78-11 19.3-20.33 18.92-20.73-.39-.4-2.5.13-4.7 1.18-2.2 1.06-16.6 7.63-32 14.61s-31.38 14.26-35.5 16.17c-4.13 1.91-11.77 5.4-17 7.75-5.23 2.36-12.88 5.85-17 7.75-4.13 1.9-13.13 6-20 9.1-6.88 3.09-13.29 5.64-14.25 5.65-1.49.02-1.91-1.53-2.83-10.23-.59-5.64-1.69-14.07-2.44-18.75s-2.29-15.7-3.42-24.5-2.22-17.35-2.42-19-.58-4.24-.85-5.75c-.26-1.51-.89-2.73-1.39-2.71-.49.02-2.7 2.34-4.9 5.15" style="fill:#4688f6"/><path fill-rule="evenodd" d="M323 333.11c1.38-.02 3.26.5 4.19 1.17s1.99 2.57 2.35 4.22c.41 1.91-.13 5.54-1.49 10-1.18 3.85-3.86 10.15-5.97 14s-5.02 8.8-6.46 11c-1.45 2.2-2.52 4.12-2.38 4.26s1.61-.42 3.26-1.24c1.65-.83 4.57-1.53 6.5-1.55 2.11-.02 4.17.67 5.17 1.75.92.98 1.96 2.9 2.31 4.28.36 1.4-.1 4.7-1.04 7.5-.92 2.75-2.46 8.15-3.42 12-.97 3.85-2.04 8.69-2.39 10.75-.47 2.82-.25 3.94.89 4.5.99.49 2.38-.11 4.03-1.75 1.38-1.38 4.26-6.1 6.4-10.5s4.77-10.7 5.84-14c1.08-3.3 2.94-8.02 4.13-10.5s3.5-5.29 5.12-6.25c1.63-.96 4.08-1.75 5.46-1.75 1.37 0 3.18.67 4 1.5 1.32 1.32 1.33 1.82.03 4.25-.81 1.51-2.58 5.67-3.93 9.25-1.36 3.57-3.4 9.99-4.53 14.25-1.14 4.26-1.84 8.65-1.57 9.75s.84 2.01 1.25 2.02 2.18-1.45 3.94-3.25c1.75-1.8 4.47-5.97 6.04-9.27s3.5-7.13 4.29-8.5c.79-1.38 1.98-4.98 2.64-8 .67-3.02 1.24-7.19 1.28-9.25.03-2.06.77-4.43 1.63-5.25.87-.83 3.23-1.49 5.25-1.47 2.1.01 4.45.76 5.46 1.75.98.94 1.77 2.28 1.75 2.97-.02.7 1.4.08 3.22-1.4 1.79-1.46 4.71-3.26 6.5-4s4.82-1.35 6.75-1.35q3.5 0 5.66 2.25c1.9 1.98 2.08 2.96 1.51 8.25-.35 3.3-1.48 8.48-2.51 11.5-1.02 3.02-2.15 8.31-2.51 11.75-.49 4.67-.33 6.26.6 6.27.69.01 2.43-1.22 3.86-2.75 1.44-1.52 3.99-5.47 5.66-8.77s4.25-9.38 5.72-13.5c1.47-4.13 3.2-8.57 3.84-9.88.64-1.3 2.63-3.67 4.42-5.25s4.82-3.1 6.75-3.37c2.04-.29 4.13.02 5.02.75 1.26 1.03 1.3 1.52.24 2.75-.7.82-2.03 2.85-2.93 4.5-.91 1.65-2.84 6.15-4.3 10-1.6 4.23-2.92 10.27-3.34 15.26-.53 6.31-.4 8.25.56 8.25.69-.01 2.64-1.47 4.35-3.26 1.7-1.79 4.51-5.73 6.24-8.75s3.75-7.08 4.49-9c.73-1.93 2.12-6.2 3.07-9.5.96-3.3 2.38-7.02 3.17-8.26s2.78-2.66 4.43-3.16 4.69-1.17 6.75-1.5c2.06-.32 3.96-.24 4.22.17s-.83 3.23-2.44 6.25c-1.6 3.02-3.34 7.3-3.87 9.5s-2.61 10.3-4.63 18-3.96 14.45-4.31 15c-.36.55 1.36-.55 3.82-2.45 2.45-1.9 7.72-6.51 11.71-10.25 4.22-3.96 7.7-6.49 8.33-6.05.59.41.81 1.76.5 3-.32 1.24-3.39 5.14-6.83 8.66-3.44 3.53-9.51 8.48-13.5 11-4.33 2.74-7.51 5.5-7.9 6.84-.36 1.24-1.69 3.82-2.97 5.75-1.28 1.92-4.81 5.41-7.85 7.75s-7.67 4.92-10.28 5.74-6.1 1.49-7.75 1.49c-1.65.01-4.57-.41-6.5-.93-1.93-.51-4.55-1.75-5.84-2.74-1.77-1.38-2.32-2.77-2.29-5.81.03-2.43.75-4.73 1.84-5.85.98-1.02 3.81-3.03 6.29-4.45 2.48-1.43 5.85-2.94 7.5-3.36s6.37-1.62 10.5-2.67c5.33-1.36 7.7-2.45 8.18-3.79.37-1.03.71-2.89.75-4.13.06-1.99-.37-1.77-3.68 1.83-3 3.27-4.65 4.2-8.25 4.68-3.27.43-5.25.13-7.25-1.08-2.07-1.27-2.9-2.73-3.96-10.18l-2.41 4c-1.32 2.2-4.08 5.7-6.14 7.77s-5.09 4.23-6.74 4.78c-2.04.69-3.88.68-5.75-.02-1.51-.57-3.24-2.27-3.85-3.78-.67-1.69-.86-5.83-.49-10.75.34-4.4 1.72-11.83 3.08-16.5 1.36-4.68 2.48-9.74 2.49-11.25.01-1.95-.49-2.76-1.73-2.77-.96-.01-3.23 1.23-5.04 2.75-2.18 1.83-4.62 5.82-7.2 11.77-2.27 5.21-4.88 13.75-6.21 20.28-1.58 7.73-2.77 11.4-3.8 11.69-.82.23-3.07.49-5 .57-1.93.09-4.06.12-4.75.06-.7-.06-1.25-1.42-1.25-6.1l-3.75 4.12c-2.06 2.27-4.99 4.74-6.5 5.5s-3.43 1.38-4.25 1.38-2.85-1.35-4.5-3c-2.28-2.28-3-3.9-2.96-10.5l-4.27 6.2c-2.35 3.41-5.84 7.35-7.77 8.77-2.08 1.52-4.82 2.56-6.75 2.55-2.09-.01-3.97-.82-5.27-2.27-1.68-1.87-2.02-3.61-1.99-10.25.01-5.7.88-11.17 3.01-19 1.64-6.05 2.99-11.56 2.99-12.25.01-.69-.55-1.25-1.24-1.26-.69 0-3 1.46-5.14 3.25s-4.95 5.06-6.24 7.26c-1.3 2.2-3.07 6.48-3.95 9.5s-2.17 8.2-2.87 11.5-1.79 7.91-3.55 14.5h-6c-3.97 0-6.1-.42-6.31-1.25-.17-.69.49-4.18 1.46-7.75.97-3.58 2.65-10.1 3.74-14.5 1.08-4.4 2.94-12.05 4.13-17s3.32-12.6 4.72-17c1.41-4.4 3.66-10.93 5.02-14.5 1.36-3.58 3.2-7.85 4.1-9.5s3.26-5.16 5.24-7.8c2.03-2.72 5.07-5.4 7-6.17 1.87-.75 4.52-1.39 5.9-1.42m-5.76 13.39c-1.13 2.2-2.8 6.02-3.71 8.5s-2.75 7.87-4.08 12c-1.33 4.12-2.43 7.73-2.45 8s.38.05.89-.5 1.93-2.8 3.16-5c1.24-2.2 3.6-6.48 5.26-9.5s4.08-8.65 5.37-12.5 2.34-7.56 2.33-8.25c0-.69-.42-1.25-.91-1.25-.5 0-1.56 1.01-2.36 2.25s-2.37 4.05-3.5 6.25m98.47 80.75c-1.49.96-2.71 2.2-2.71 2.75s.68 1.23 1.5 1.5 3.36-.06 5.63-.75 6.21-3.17 8.75-5.51 3.94-4.22 3.12-4.17c-.82.04-4.22 1.06-7.54 2.26-3.32 1.19-7.26 2.96-8.75 3.92m-145.32-84.26c2.26-.01 6.13.67 8.61 1.5s6.19 2.86 8.25 4.51c2.72 2.18 3.74 3.75 3.72 5.75-.02 1.51-.88 4.1-1.91 5.75s-2.93 3.62-4.22 4.37c-1.29.76-3.13 1.1-4.09.75-.96-.34-1.99-1.86-2.28-3.37-.3-1.51-1.04-4.32-1.65-6.25-.6-1.93-1.6-3.83-2.21-4.23-.61-.41-2.35-.75-3.86-.75-1.65-.01-4.05 1.15-6 2.9-3.12 2.81-3.25 3.23-3.2 10.25.04 6.62.35 7.76 3.26 11.83 1.77 2.48 5.71 7.65 8.74 11.5 3.75 4.77 6.16 9.07 7.56 13.5 2 6.38 2.01 6.61.22 12.43-1.36 4.4-3.12 7.26-6.83 11.1-4.22 4.37-6.17 5.53-12.5 7.48-5.47 1.68-8.86 2.15-12.5 1.75-2.75-.31-6.57-1.33-8.5-2.27s-4.6-3.12-5.94-4.85-2.63-4.71-2.88-6.64-.19-4.63.12-6c.31-1.38 1.94-4.07 3.6-6 2.52-2.91 3.34-3.31 4.82-2.4 1.05.64 2.42 3.73 3.34 7.5.86 3.52 2.66 7.87 4 9.66 1.34 1.8 3.56 3.76 4.94 4.37 1.84.82 3.29.81 5.5-.02 1.65-.62 4.35-2.82 6-4.87 2.59-3.23 3-4.56 2.99-9.74-.01-4.76-.52-6.72-2.49-9.5-1.36-1.93-5.19-6.88-8.51-11-3.32-4.13-7.11-9.98-8.42-13-1.3-3.02-2.39-7.3-2.41-9.5-.02-2.49 1.15-6.46 3.09-10.5 1.72-3.57 3.72-7.24 4.44-8.15s3.96-3.04 7.2-4.75c3.79-2 7.35-3.1 10-3.11m90.28 9.01c1.42 0 2.92.98 3.83 2.5 1.24 2.07 1.28 2.97.25 5.23-.69 1.49-2.51 3.18-4.04 3.75-1.95.71-3.3.69-4.5-.08-.94-.61-1.84-2.41-2-4q-.28-2.9 1.92-5.15c1.22-1.24 3.26-2.25 4.54-2.25" style="fill:#fff"/></svg>